<svg id="Layer_1" data-name="Layer 1" xmlns="http://www.w3.org/2000/svg" viewBox="0 0 512 512"><title>plane</title><path d="M0,256C0,114.62,114.62,0,256,0S512,114.63,512,256,397.37,512,256,512,0,397.38,0,256Z" fill="#0086cd"/><path d="M378.83,133.46c-8.11-8.1-35.63,6.27-43.75,14.38l-32.48,32.48H154.86a7.31,7.31,0,0,0-2.69,14.12L249.87,233l-56.22,63.59L133.3,293a2.54,2.54,0,0,0-.93,4.9l47.68,18.84a20,20,0,0,0,1.15,3.51l-2.08,2.1a7.6,7.6,0,1,0,10.75,10.75l2-2a20.25,20.25,0,0,0,3.55,1.2l18.38,47.1a2.54,2.54,0,0,0,2.83,1.57,2.47,2.47,0,0,0,1.32-.7,2.51,2.51,0,0,0,.74-1.79l-3.69-59.15,64.55-57.17,38.25,98A7.32,7.32,0,0,0,332,357.44V209.7l32.48-32.48C372.57,169.11,386.94,141.57,378.83,133.46Z" fill="#fff"/></svg>